<?xml version="1.0" encoding="UTF-8" standalone="no"?>
<!DOCTYPE svg PUBLIC "-//W3C//DTD SVG 1.1//EN" "http://www.w3.org/Graphics/SVG/1.1/DTD/svg11.dtd">
<svg width="100%" height="100%" viewBox="0 0 1000 775" version="1.1" xmlns="http://www.w3.org/2000/svg" xmlns:xlink="http://www.w3.org/1999/xlink" xml:space="preserve" xmlns:serif="http://www.serif.com/" style="fill-rule:evenodd;clip-rule:evenodd;stroke-linecap:round;stroke-linejoin:round;stroke-miterlimit:1.5;">
    <g transform="matrix(0.999995,0,0,0.998148,-39.9996,-139.721)">
        <g>
            <g transform="matrix(0.922325,0,0,0.922325,-3.19345,-82.1392)">
                <circle cx="588.94" cy="576.954" r="325.265" style="fill:none;stroke:black;stroke-width:10.84px;"/>
            </g>
            <g transform="matrix(-0.0165518,-1.98622,0.787191,-0.0262397,189.737,1238.5)">
                <path d="M240,450L541.998,456.35" style="fill:none;stroke:black;stroke-width:6.56px;"/>
            </g>
            <g transform="matrix(1.98622,-0.0165518,0.0262397,0.787191,-248.501,99.7367)">
                <path d="M240,450L541.998,456.35" style="fill:none;stroke:black;stroke-width:6.56px;"/>
            </g>
            <g transform="matrix(-1.41617,-1.39277,0.538073,-0.575182,849.881,1255.23)">
                <path d="M240,450L541.998,456.35" style="fill:none;stroke:black;stroke-width:6.56px;"/>
            </g>
            <g transform="matrix(1.39277,-1.41617,0.575182,0.538073,-265.228,759.881)">
                <path d="M240,450L541.998,456.35" style="fill:none;stroke:black;stroke-width:6.56px;"/>
            </g>
            <g transform="matrix(1.03576,0,0,0.957122,-34.4828,-126.891)">
                <path d="M1037.39,1079.58L71.911,1079.58L313.28,922.861L796.017,922.861L1037.39,1079.58Z" style="fill:none;stroke:black;stroke-width:10.03px;"/>
            </g>
        </g>
    </g>
</svg>
